<mxfile host="app.diagrams.net" modified="2022-09-14T00:50:48.845Z" agent="5.0 (Windows NT 10.0; Win64; x64) AppleWebKit/537.36 (KHTML, like Gecko) Chrome/105.0.0.0 Safari/537.36" etag="EOWaIvjsULckMIC_8AE2" version="20.3.0" type="github">
  <diagram id="uVWatOPMQ36__uk5pxc7" name="Page-1">
    <mxGraphModel dx="2062" dy="1114" grid="1" gridSize="10" guides="1" tooltips="1" connect="1" arrows="1" fold="1" page="1" pageScale="1" pageWidth="850" pageHeight="1100" math="0" shadow="0">
      <root>
        <mxCell id="0" />
        <mxCell id="1" parent="0" />
        <mxCell id="sieKOuywl5AD_1K4OOEY-1" value="" style="verticalLabelPosition=bottom;sketch=0;aspect=fixed;html=1;verticalAlign=top;strokeColor=none;align=center;outlineConnect=0;shape=mxgraph.citrix.router;" vertex="1" parent="1">
          <mxGeometry x="310" y="370" width="60.27" height="40" as="geometry" />
        </mxCell>
        <mxCell id="sieKOuywl5AD_1K4OOEY-2" value="RED SRC - Router" style="text;html=1;strokeColor=none;fillColor=none;align=center;verticalAlign=middle;whiteSpace=wrap;rounded=0;" vertex="1" parent="1">
          <mxGeometry x="310" y="320" width="60" height="30" as="geometry" />
        </mxCell>
        <mxCell id="sieKOuywl5AD_1K4OOEY-3" value="" style="endArrow=none;html=1;rounded=0;" edge="1" parent="1" target="sieKOuywl5AD_1K4OOEY-1">
          <mxGeometry width="50" height="50" relative="1" as="geometry">
            <mxPoint x="130" y="390" as="sourcePoint" />
            <mxPoint x="270" y="380" as="targetPoint" />
          </mxGeometry>
        </mxCell>
        <mxCell id="sieKOuywl5AD_1K4OOEY-4" value="172.16.120.0/30" style="text;html=1;strokeColor=none;fillColor=none;align=center;verticalAlign=middle;whiteSpace=wrap;rounded=0;" vertex="1" parent="1">
          <mxGeometry x="140" y="360" width="60" height="30" as="geometry" />
        </mxCell>
        <mxCell id="sieKOuywl5AD_1K4OOEY-5" value=".1&lt;br&gt;" style="text;html=1;strokeColor=none;fillColor=none;align=center;verticalAlign=middle;whiteSpace=wrap;rounded=0;" vertex="1" parent="1">
          <mxGeometry x="260" y="360" width="60" height="30" as="geometry" />
        </mxCell>
        <mxCell id="sieKOuywl5AD_1K4OOEY-6" value="eth0" style="text;html=1;strokeColor=none;fillColor=none;align=center;verticalAlign=middle;whiteSpace=wrap;rounded=0;" vertex="1" parent="1">
          <mxGeometry x="260" y="390" width="60" height="30" as="geometry" />
        </mxCell>
        <mxCell id="sieKOuywl5AD_1K4OOEY-7" value="" style="endArrow=none;html=1;rounded=0;" edge="1" parent="1" target="sieKOuywl5AD_1K4OOEY-1">
          <mxGeometry width="50" height="50" relative="1" as="geometry">
            <mxPoint x="340" y="580" as="sourcePoint" />
            <mxPoint x="370" y="470" as="targetPoint" />
          </mxGeometry>
        </mxCell>
        <mxCell id="sieKOuywl5AD_1K4OOEY-8" value="" style="endArrow=none;html=1;rounded=0;" edge="1" parent="1" source="sieKOuywl5AD_1K4OOEY-1">
          <mxGeometry width="50" height="50" relative="1" as="geometry">
            <mxPoint x="440" y="420" as="sourcePoint" />
            <mxPoint x="530" y="390" as="targetPoint" />
          </mxGeometry>
        </mxCell>
        <mxCell id="sieKOuywl5AD_1K4OOEY-9" value="eth1" style="text;html=1;strokeColor=none;fillColor=none;align=center;verticalAlign=middle;whiteSpace=wrap;rounded=0;" vertex="1" parent="1">
          <mxGeometry x="350" y="410" width="60" height="30" as="geometry" />
        </mxCell>
        <mxCell id="sieKOuywl5AD_1K4OOEY-10" value="eth2" style="text;html=1;strokeColor=none;fillColor=none;align=center;verticalAlign=middle;whiteSpace=wrap;rounded=0;" vertex="1" parent="1">
          <mxGeometry x="365" y="360" width="60" height="30" as="geometry" />
        </mxCell>
        <mxCell id="sieKOuywl5AD_1K4OOEY-11" value=".6" style="text;html=1;strokeColor=none;fillColor=none;align=center;verticalAlign=middle;whiteSpace=wrap;rounded=0;" vertex="1" parent="1">
          <mxGeometry x="350" y="430" width="60" height="30" as="geometry" />
        </mxCell>
        <mxCell id="sieKOuywl5AD_1K4OOEY-12" value="101.30" style="text;html=1;strokeColor=none;fillColor=none;align=center;verticalAlign=middle;whiteSpace=wrap;rounded=0;" vertex="1" parent="1">
          <mxGeometry x="370.27" y="340" width="60" height="30" as="geometry" />
        </mxCell>
        <mxCell id="sieKOuywl5AD_1K4OOEY-13" value="" style="verticalLabelPosition=bottom;sketch=0;aspect=fixed;html=1;verticalAlign=top;strokeColor=none;align=center;outlineConnect=0;shape=mxgraph.citrix.router;" vertex="1" parent="1">
          <mxGeometry x="313" y="570" width="55" height="36.5" as="geometry" />
        </mxCell>
        <mxCell id="sieKOuywl5AD_1K4OOEY-14" value="RED-IPS&lt;br&gt;Router" style="text;html=1;strokeColor=none;fillColor=none;align=center;verticalAlign=middle;whiteSpace=wrap;rounded=0;" vertex="1" parent="1">
          <mxGeometry x="250" y="570" width="60" height="30" as="geometry" />
        </mxCell>
        <mxCell id="sieKOuywl5AD_1K4OOEY-15" value=".5" style="text;html=1;strokeColor=none;fillColor=none;align=center;verticalAlign=middle;whiteSpace=wrap;rounded=0;" vertex="1" parent="1">
          <mxGeometry x="290" y="540" width="60" height="30" as="geometry" />
        </mxCell>
        <mxCell id="sieKOuywl5AD_1K4OOEY-16" value="172.16.101.30/27" style="text;html=1;strokeColor=none;fillColor=none;align=center;verticalAlign=middle;whiteSpace=wrap;rounded=0;" vertex="1" parent="1">
          <mxGeometry x="440" y="360" width="60" height="30" as="geometry" />
        </mxCell>
        <mxCell id="sieKOuywl5AD_1K4OOEY-17" value="172.16.120.6/30" style="text;html=1;strokeColor=none;fillColor=none;align=center;verticalAlign=middle;whiteSpace=wrap;rounded=0;" vertex="1" parent="1">
          <mxGeometry x="368" y="480" width="60" height="30" as="geometry" />
        </mxCell>
        <mxCell id="sieKOuywl5AD_1K4OOEY-18" value="eth0" style="text;html=1;strokeColor=none;fillColor=none;align=center;verticalAlign=middle;whiteSpace=wrap;rounded=0;" vertex="1" parent="1">
          <mxGeometry x="340" y="540" width="60" height="30" as="geometry" />
        </mxCell>
        <mxCell id="sieKOuywl5AD_1K4OOEY-20" value="eth1" style="text;html=1;strokeColor=none;fillColor=none;align=center;verticalAlign=middle;whiteSpace=wrap;rounded=0;" vertex="1" parent="1">
          <mxGeometry x="290" y="606.5" width="60" height="30" as="geometry" />
        </mxCell>
        <mxCell id="sieKOuywl5AD_1K4OOEY-21" value="" style="endArrow=none;html=1;rounded=0;" edge="1" parent="1" target="sieKOuywl5AD_1K4OOEY-13">
          <mxGeometry width="50" height="50" relative="1" as="geometry">
            <mxPoint x="341" y="740" as="sourcePoint" />
            <mxPoint x="400" y="680" as="targetPoint" />
          </mxGeometry>
        </mxCell>
        <mxCell id="sieKOuywl5AD_1K4OOEY-22" value=".10" style="text;html=1;strokeColor=none;fillColor=none;align=center;verticalAlign=middle;whiteSpace=wrap;rounded=0;" vertex="1" parent="1">
          <mxGeometry x="340" y="606.5" width="60" height="30" as="geometry" />
        </mxCell>
        <mxCell id="sieKOuywl5AD_1K4OOEY-23" value="172.16.120.10/30" style="text;html=1;strokeColor=none;fillColor=none;align=center;verticalAlign=middle;whiteSpace=wrap;rounded=0;" vertex="1" parent="1">
          <mxGeometry x="368" y="650" width="60" height="30" as="geometry" />
        </mxCell>
        <mxCell id="sieKOuywl5AD_1K4OOEY-24" style="edgeStyle=orthogonalEdgeStyle;rounded=0;orthogonalLoop=1;jettySize=auto;html=1;exitX=1;exitY=0.75;exitDx=0;exitDy=0;entryX=1;entryY=0.5;entryDx=0;entryDy=0;" edge="1" parent="1" source="sieKOuywl5AD_1K4OOEY-23" target="sieKOuywl5AD_1K4OOEY-23">
          <mxGeometry relative="1" as="geometry" />
        </mxCell>
        <mxCell id="sieKOuywl5AD_1K4OOEY-25" value="" style="verticalLabelPosition=bottom;sketch=0;aspect=fixed;html=1;verticalAlign=top;strokeColor=none;align=center;outlineConnect=0;shape=mxgraph.citrix.router;" vertex="1" parent="1">
          <mxGeometry x="315" y="740" width="55" height="36.5" as="geometry" />
        </mxCell>
        <mxCell id="sieKOuywl5AD_1K4OOEY-26" value=".9" style="text;html=1;strokeColor=none;fillColor=none;align=center;verticalAlign=middle;whiteSpace=wrap;rounded=0;" vertex="1" parent="1">
          <mxGeometry x="290" y="710" width="60" height="30" as="geometry" />
        </mxCell>
        <mxCell id="sieKOuywl5AD_1K4OOEY-27" value="RED-POP&lt;br&gt;Router" style="text;html=1;strokeColor=none;fillColor=none;align=center;verticalAlign=middle;whiteSpace=wrap;rounded=0;" vertex="1" parent="1">
          <mxGeometry x="250" y="730" width="60" height="30" as="geometry" />
        </mxCell>
        <mxCell id="sieKOuywl5AD_1K4OOEY-28" value="eth0" style="text;html=1;strokeColor=none;fillColor=none;align=center;verticalAlign=middle;whiteSpace=wrap;rounded=0;" vertex="1" parent="1">
          <mxGeometry x="330" y="710" width="60" height="30" as="geometry" />
        </mxCell>
        <mxCell id="sieKOuywl5AD_1K4OOEY-29" value="eth1" style="text;html=1;strokeColor=none;fillColor=none;align=center;verticalAlign=middle;whiteSpace=wrap;rounded=0;" vertex="1" parent="1">
          <mxGeometry x="290" y="780" width="60" height="30" as="geometry" />
        </mxCell>
        <mxCell id="sieKOuywl5AD_1K4OOEY-30" value="eth2" style="text;html=1;strokeColor=none;fillColor=none;align=center;verticalAlign=middle;whiteSpace=wrap;rounded=0;" vertex="1" parent="1">
          <mxGeometry x="360" y="760" width="60" height="30" as="geometry" />
        </mxCell>
        <mxCell id="sieKOuywl5AD_1K4OOEY-32" value="" style="endArrow=none;html=1;rounded=0;" edge="1" parent="1" source="sieKOuywl5AD_1K4OOEY-25">
          <mxGeometry width="50" height="50" relative="1" as="geometry">
            <mxPoint x="400" y="780" as="sourcePoint" />
            <mxPoint x="570" y="758" as="targetPoint" />
          </mxGeometry>
        </mxCell>
        <mxCell id="sieKOuywl5AD_1K4OOEY-33" value="" style="endArrow=none;html=1;rounded=0;" edge="1" parent="1" target="sieKOuywl5AD_1K4OOEY-25">
          <mxGeometry width="50" height="50" relative="1" as="geometry">
            <mxPoint x="343" y="970" as="sourcePoint" />
            <mxPoint x="320" y="870" as="targetPoint" />
          </mxGeometry>
        </mxCell>
        <mxCell id="sieKOuywl5AD_1K4OOEY-34" value="&amp;nbsp;172.16.182.126/27" style="text;html=1;strokeColor=none;fillColor=none;align=center;verticalAlign=middle;whiteSpace=wrap;rounded=0;" vertex="1" parent="1">
          <mxGeometry x="250" y="860" width="60" height="30" as="geometry" />
        </mxCell>
        <mxCell id="sieKOuywl5AD_1K4OOEY-35" value="182.126" style="text;html=1;strokeColor=none;fillColor=none;align=center;verticalAlign=middle;whiteSpace=wrap;rounded=0;" vertex="1" parent="1">
          <mxGeometry x="280" y="800" width="60" height="30" as="geometry" />
        </mxCell>
        <mxCell id="sieKOuywl5AD_1K4OOEY-36" value="&lt;div&gt;&amp;nbsp;172.16.140.6/30&lt;/div&gt;&lt;div&gt;&lt;br&gt;&lt;/div&gt;" style="text;html=1;strokeColor=none;fillColor=none;align=center;verticalAlign=middle;whiteSpace=wrap;rounded=0;" vertex="1" parent="1">
          <mxGeometry x="450" y="770" width="60" height="30" as="geometry" />
        </mxCell>
        <mxCell id="sieKOuywl5AD_1K4OOEY-37" value="&lt;div&gt;&amp;nbsp;140.6&lt;/div&gt;&lt;div&gt;&lt;br&gt;&lt;/div&gt;" style="text;html=1;strokeColor=none;fillColor=none;align=center;verticalAlign=middle;whiteSpace=wrap;rounded=0;" vertex="1" parent="1">
          <mxGeometry x="360" y="790" width="60" height="30" as="geometry" />
        </mxCell>
        <mxCell id="sieKOuywl5AD_1K4OOEY-38" value="" style="verticalLabelPosition=bottom;sketch=0;aspect=fixed;html=1;verticalAlign=top;strokeColor=none;align=center;outlineConnect=0;shape=mxgraph.citrix.router;" vertex="1" parent="1">
          <mxGeometry x="570" y="740" width="55" height="36.5" as="geometry" />
        </mxCell>
        <mxCell id="sieKOuywl5AD_1K4OOEY-39" value="140.5" style="text;html=1;strokeColor=none;fillColor=none;align=center;verticalAlign=middle;whiteSpace=wrap;rounded=0;" vertex="1" parent="1">
          <mxGeometry x="520" y="780" width="60" height="30" as="geometry" />
        </mxCell>
        <mxCell id="sieKOuywl5AD_1K4OOEY-40" value="eth0" style="text;html=1;strokeColor=none;fillColor=none;align=center;verticalAlign=middle;whiteSpace=wrap;rounded=0;" vertex="1" parent="1">
          <mxGeometry x="520" y="760" width="60" height="30" as="geometry" />
        </mxCell>
        <mxCell id="sieKOuywl5AD_1K4OOEY-41" value="RED-POP2&lt;br&gt;Router" style="text;html=1;strokeColor=none;fillColor=none;align=center;verticalAlign=middle;whiteSpace=wrap;rounded=0;" vertex="1" parent="1">
          <mxGeometry x="510" y="720" width="70" height="30" as="geometry" />
        </mxCell>
        <mxCell id="sieKOuywl5AD_1K4OOEY-42" value="172.16.140.62/27" style="text;html=1;strokeColor=none;fillColor=none;align=center;verticalAlign=middle;whiteSpace=wrap;rounded=0;" vertex="1" parent="1">
          <mxGeometry x="710" y="760" width="60" height="30" as="geometry" />
        </mxCell>
        <mxCell id="sieKOuywl5AD_1K4OOEY-43" value="" style="endArrow=none;html=1;rounded=0;" edge="1" parent="1" source="sieKOuywl5AD_1K4OOEY-38">
          <mxGeometry width="50" height="50" relative="1" as="geometry">
            <mxPoint x="690" y="770" as="sourcePoint" />
            <mxPoint x="850" y="760" as="targetPoint" />
          </mxGeometry>
        </mxCell>
        <mxCell id="sieKOuywl5AD_1K4OOEY-44" value="140.62" style="text;html=1;strokeColor=none;fillColor=none;align=center;verticalAlign=middle;whiteSpace=wrap;rounded=0;" vertex="1" parent="1">
          <mxGeometry x="625" y="780" width="60" height="30" as="geometry" />
        </mxCell>
        <mxCell id="sieKOuywl5AD_1K4OOEY-45" value="eth1" style="text;html=1;strokeColor=none;fillColor=none;align=center;verticalAlign=middle;whiteSpace=wrap;rounded=0;" vertex="1" parent="1">
          <mxGeometry x="625" y="760" width="60" height="30" as="geometry" />
        </mxCell>
        <mxCell id="sieKOuywl5AD_1K4OOEY-46" value="" style="rounded=1;whiteSpace=wrap;html=1;" vertex="1" parent="1">
          <mxGeometry x="7.5" y="950" width="670" height="280" as="geometry" />
        </mxCell>
        <mxCell id="sieKOuywl5AD_1K4OOEY-47" value="&lt;br&gt;&lt;br&gt;&lt;br&gt;&lt;br&gt;&lt;br&gt;&lt;br&gt;" style="rounded=1;whiteSpace=wrap;html=1;" vertex="1" parent="1">
          <mxGeometry x="820" y="618.25" width="660" height="280" as="geometry" />
        </mxCell>
        <mxCell id="sieKOuywl5AD_1K4OOEY-48" value="" style="rounded=1;whiteSpace=wrap;html=1;" vertex="1" parent="1">
          <mxGeometry x="530" y="260" width="680" height="260" as="geometry" />
        </mxCell>
        <mxCell id="sieKOuywl5AD_1K4OOEY-49" value="Open Ports:&lt;br&gt;22, 179" style="text;html=1;strokeColor=none;fillColor=none;align=center;verticalAlign=middle;whiteSpace=wrap;rounded=0;" vertex="1" parent="1">
          <mxGeometry x="305" y="290" width="70" height="30" as="geometry" />
        </mxCell>
        <mxCell id="sieKOuywl5AD_1K4OOEY-50" value="" style="verticalLabelPosition=bottom;sketch=0;aspect=fixed;html=1;verticalAlign=top;strokeColor=none;align=center;outlineConnect=0;shape=mxgraph.citrix.laptop_1;" vertex="1" parent="1">
          <mxGeometry x="580" y="300" width="91" height="77" as="geometry" />
        </mxCell>
        <mxCell id="sieKOuywl5AD_1K4OOEY-51" value="Open ports:&lt;br&gt;22, 4444" style="text;html=1;strokeColor=none;fillColor=none;align=center;verticalAlign=middle;whiteSpace=wrap;rounded=0;" vertex="1" parent="1">
          <mxGeometry x="575.5" y="400" width="100" height="30" as="geometry" />
        </mxCell>
        <mxCell id="sieKOuywl5AD_1K4OOEY-52" value="172.16.101.2" style="text;html=1;strokeColor=none;fillColor=none;align=center;verticalAlign=middle;whiteSpace=wrap;rounded=0;" vertex="1" parent="1">
          <mxGeometry x="595.5" y="430" width="60" height="30" as="geometry" />
        </mxCell>
        <mxCell id="sieKOuywl5AD_1K4OOEY-53" value="red-dmz-host-1" style="text;html=1;strokeColor=none;fillColor=none;align=center;verticalAlign=middle;whiteSpace=wrap;rounded=0;" vertex="1" parent="1">
          <mxGeometry x="577.5" y="450" width="100" height="30" as="geometry" />
        </mxCell>
        <mxCell id="sieKOuywl5AD_1K4OOEY-54" value="" style="verticalLabelPosition=bottom;sketch=0;aspect=fixed;html=1;verticalAlign=top;strokeColor=none;align=center;outlineConnect=0;shape=mxgraph.citrix.laptop_1;" vertex="1" parent="1">
          <mxGeometry x="870" y="653" width="91" height="77" as="geometry" />
        </mxCell>
        <mxCell id="sieKOuywl5AD_1K4OOEY-55" value="" style="verticalLabelPosition=bottom;sketch=0;aspect=fixed;html=1;verticalAlign=top;strokeColor=none;align=center;outlineConnect=0;shape=mxgraph.citrix.laptop_1;" vertex="1" parent="1">
          <mxGeometry x="1050" y="653" width="91" height="77" as="geometry" />
        </mxCell>
        <mxCell id="sieKOuywl5AD_1K4OOEY-56" value="Open Ports:&lt;br&gt;22, 80, 2800" style="text;html=1;strokeColor=none;fillColor=none;align=center;verticalAlign=middle;whiteSpace=wrap;rounded=0;" vertex="1" parent="1">
          <mxGeometry x="870" y="750" width="84" height="30" as="geometry" />
        </mxCell>
        <mxCell id="sieKOuywl5AD_1K4OOEY-57" value="Open Ports:&lt;br&gt;22" style="text;html=1;strokeColor=none;fillColor=none;align=center;verticalAlign=middle;whiteSpace=wrap;rounded=0;" vertex="1" parent="1">
          <mxGeometry x="1050" y="750" width="100" height="30" as="geometry" />
        </mxCell>
        <mxCell id="sieKOuywl5AD_1K4OOEY-58" value="172.16.140.33" style="text;html=1;strokeColor=none;fillColor=none;align=center;verticalAlign=middle;whiteSpace=wrap;rounded=0;" vertex="1" parent="1">
          <mxGeometry x="882" y="780" width="60" height="30" as="geometry" />
        </mxCell>
        <mxCell id="sieKOuywl5AD_1K4OOEY-59" value="172.16.140.35" style="text;html=1;strokeColor=none;fillColor=none;align=center;verticalAlign=middle;whiteSpace=wrap;rounded=0;" vertex="1" parent="1">
          <mxGeometry x="1070" y="780" width="60" height="30" as="geometry" />
        </mxCell>
        <mxCell id="sieKOuywl5AD_1K4OOEY-60" value="N/A" style="text;html=1;strokeColor=none;fillColor=none;align=center;verticalAlign=middle;whiteSpace=wrap;rounded=0;" vertex="1" parent="1">
          <mxGeometry x="882" y="800" width="60" height="30" as="geometry" />
        </mxCell>
        <mxCell id="sieKOuywl5AD_1K4OOEY-61" value="red-int-dmz2-host-2" style="text;html=1;strokeColor=none;fillColor=none;align=center;verticalAlign=middle;whiteSpace=wrap;rounded=0;" vertex="1" parent="1">
          <mxGeometry x="1040" y="800" width="120" height="30" as="geometry" />
        </mxCell>
        <mxCell id="sieKOuywl5AD_1K4OOEY-62" value="DMZ" style="text;html=1;strokeColor=none;fillColor=none;align=center;verticalAlign=middle;whiteSpace=wrap;rounded=0;" vertex="1" parent="1">
          <mxGeometry x="840" y="260" width="60" height="30" as="geometry" />
        </mxCell>
        <mxCell id="sieKOuywl5AD_1K4OOEY-63" value="&amp;nbsp;REDINTDMZ2" style="text;html=1;strokeColor=none;fillColor=none;align=center;verticalAlign=middle;whiteSpace=wrap;rounded=0;" vertex="1" parent="1">
          <mxGeometry x="1120" y="618.25" width="60" height="30" as="geometry" />
        </mxCell>
        <mxCell id="sieKOuywl5AD_1K4OOEY-64" value="Open Ports:&lt;br&gt;22" style="text;html=1;strokeColor=none;fillColor=none;align=center;verticalAlign=middle;whiteSpace=wrap;rounded=0;" vertex="1" parent="1">
          <mxGeometry x="547.5" y="690" width="100" height="30" as="geometry" />
        </mxCell>
        <mxCell id="sieKOuywl5AD_1K4OOEY-65" value="Open Ports:&lt;br&gt;22" style="text;html=1;strokeColor=none;fillColor=none;align=center;verticalAlign=middle;whiteSpace=wrap;rounded=0;" vertex="1" parent="1">
          <mxGeometry x="210" y="770" width="90" height="30" as="geometry" />
        </mxCell>
        <mxCell id="sieKOuywl5AD_1K4OOEY-66" value="" style="verticalLabelPosition=bottom;sketch=0;aspect=fixed;html=1;verticalAlign=top;strokeColor=none;align=center;outlineConnect=0;shape=mxgraph.citrix.laptop_1;" vertex="1" parent="1">
          <mxGeometry x="49" y="980" width="91" height="77" as="geometry" />
        </mxCell>
        <mxCell id="sieKOuywl5AD_1K4OOEY-67" value="" style="verticalLabelPosition=bottom;sketch=0;aspect=fixed;html=1;verticalAlign=top;strokeColor=none;align=center;outlineConnect=0;shape=mxgraph.citrix.laptop_1;" vertex="1" parent="1">
          <mxGeometry x="209" y="980" width="91" height="77" as="geometry" />
        </mxCell>
        <mxCell id="sieKOuywl5AD_1K4OOEY-68" value="" style="verticalLabelPosition=bottom;sketch=0;aspect=fixed;html=1;verticalAlign=top;strokeColor=none;align=center;outlineConnect=0;shape=mxgraph.citrix.laptop_1;" vertex="1" parent="1">
          <mxGeometry x="370.27" y="980" width="91" height="77" as="geometry" />
        </mxCell>
        <mxCell id="sieKOuywl5AD_1K4OOEY-69" value="172.16.182.118" style="text;html=1;strokeColor=none;fillColor=none;align=center;verticalAlign=middle;whiteSpace=wrap;rounded=0;" vertex="1" parent="1">
          <mxGeometry x="563" y="1120" width="60" height="30" as="geometry" />
        </mxCell>
        <mxCell id="sieKOuywl5AD_1K4OOEY-70" value="172.16.182.114" style="text;html=1;strokeColor=none;fillColor=none;align=center;verticalAlign=middle;whiteSpace=wrap;rounded=0;" vertex="1" parent="1">
          <mxGeometry x="395" y="1120" width="60" height="30" as="geometry" />
        </mxCell>
        <mxCell id="sieKOuywl5AD_1K4OOEY-71" value="172.16.182.110" style="text;html=1;strokeColor=none;fillColor=none;align=center;verticalAlign=middle;whiteSpace=wrap;rounded=0;" vertex="1" parent="1">
          <mxGeometry x="225" y="1120" width="60" height="30" as="geometry" />
        </mxCell>
        <mxCell id="sieKOuywl5AD_1K4OOEY-72" value="" style="verticalLabelPosition=bottom;sketch=0;aspect=fixed;html=1;verticalAlign=top;strokeColor=none;align=center;outlineConnect=0;shape=mxgraph.citrix.laptop_1;" vertex="1" parent="1">
          <mxGeometry x="547.5" y="980" width="91" height="77" as="geometry" />
        </mxCell>
        <mxCell id="sieKOuywl5AD_1K4OOEY-73" value="172.16.182.106" style="text;html=1;strokeColor=none;fillColor=none;align=center;verticalAlign=middle;whiteSpace=wrap;rounded=0;" vertex="1" parent="1">
          <mxGeometry x="64.5" y="1120" width="60" height="30" as="geometry" />
        </mxCell>
        <mxCell id="sieKOuywl5AD_1K4OOEY-74" value="Open ports:&amp;nbsp;&lt;br&gt;22, 3389" style="text;html=1;strokeColor=none;fillColor=none;align=center;verticalAlign=middle;whiteSpace=wrap;rounded=0;" vertex="1" parent="1">
          <mxGeometry x="44.5" y="1080" width="100" height="30" as="geometry" />
        </mxCell>
        <mxCell id="sieKOuywl5AD_1K4OOEY-75" value="Open ports:&amp;nbsp;&lt;br&gt;22, 80" style="text;html=1;strokeColor=none;fillColor=none;align=center;verticalAlign=middle;whiteSpace=wrap;rounded=0;" vertex="1" parent="1">
          <mxGeometry x="204.5" y="1075" width="100" height="30" as="geometry" />
        </mxCell>
        <mxCell id="sieKOuywl5AD_1K4OOEY-77" value="Open ports:&amp;nbsp;&lt;br&gt;22" style="text;html=1;strokeColor=none;fillColor=none;align=center;verticalAlign=middle;whiteSpace=wrap;rounded=0;" vertex="1" parent="1">
          <mxGeometry x="375" y="1075" width="100" height="30" as="geometry" />
        </mxCell>
        <mxCell id="sieKOuywl5AD_1K4OOEY-78" value="Open ports:&amp;nbsp;&lt;br&gt;22" style="text;html=1;strokeColor=none;fillColor=none;align=center;verticalAlign=middle;whiteSpace=wrap;rounded=0;" vertex="1" parent="1">
          <mxGeometry x="547.5" y="1075" width="100" height="30" as="geometry" />
        </mxCell>
        <mxCell id="sieKOuywl5AD_1K4OOEY-81" value="red-host-1" style="text;html=1;strokeColor=none;fillColor=none;align=center;verticalAlign=middle;whiteSpace=wrap;rounded=0;" vertex="1" parent="1">
          <mxGeometry x="64.5" y="1150" width="60" height="30" as="geometry" />
        </mxCell>
        <mxCell id="sieKOuywl5AD_1K4OOEY-82" value="N/A" style="text;html=1;strokeColor=none;fillColor=none;align=center;verticalAlign=middle;whiteSpace=wrap;rounded=0;" vertex="1" parent="1">
          <mxGeometry x="225" y="1150" width="60" height="30" as="geometry" />
        </mxCell>
        <mxCell id="sieKOuywl5AD_1K4OOEY-83" value="red-host-3" style="text;html=1;strokeColor=none;fillColor=none;align=center;verticalAlign=middle;whiteSpace=wrap;rounded=0;" vertex="1" parent="1">
          <mxGeometry x="395" y="1150" width="60" height="30" as="geometry" />
        </mxCell>
        <mxCell id="sieKOuywl5AD_1K4OOEY-84" value="red-host-4" style="text;html=1;strokeColor=none;fillColor=none;align=center;verticalAlign=middle;whiteSpace=wrap;rounded=0;" vertex="1" parent="1">
          <mxGeometry x="567.5" y="1150" width="60" height="30" as="geometry" />
        </mxCell>
        <mxCell id="sieKOuywl5AD_1K4OOEY-85" value="REDHOSTS" style="text;html=1;strokeColor=none;fillColor=none;align=center;verticalAlign=middle;whiteSpace=wrap;rounded=0;" vertex="1" parent="1">
          <mxGeometry x="312.5" y="950" width="60" height="30" as="geometry" />
        </mxCell>
        <mxCell id="sieKOuywl5AD_1K4OOEY-86" value="Open Ports:&amp;nbsp;&lt;br&gt;22" style="text;html=1;strokeColor=none;fillColor=none;align=center;verticalAlign=middle;whiteSpace=wrap;rounded=0;" vertex="1" parent="1">
          <mxGeometry x="220" y="600" width="90" height="30" as="geometry" />
        </mxCell>
        <mxCell id="sieKOuywl5AD_1K4OOEY-88" value="Linux -&amp;nbsp;5.0.3(1)&amp;nbsp;" style="text;html=1;strokeColor=none;fillColor=none;align=center;verticalAlign=middle;whiteSpace=wrap;rounded=0;" vertex="1" parent="1">
          <mxGeometry x="50" y="1180" width="100" height="30" as="geometry" />
        </mxCell>
        <mxCell id="sieKOuywl5AD_1K4OOEY-89" value="N/A" style="text;html=1;strokeColor=none;fillColor=none;align=center;verticalAlign=middle;whiteSpace=wrap;rounded=0;" vertex="1" parent="1">
          <mxGeometry x="225" y="1180" width="60" height="30" as="geometry" />
        </mxCell>
        <mxCell id="sieKOuywl5AD_1K4OOEY-93" value="Linux -&amp;nbsp;5.0.3(1)&amp;nbsp;" style="text;html=1;strokeColor=none;fillColor=none;align=center;verticalAlign=middle;whiteSpace=wrap;rounded=0;" vertex="1" parent="1">
          <mxGeometry x="380" y="1180" width="100" height="30" as="geometry" />
        </mxCell>
        <mxCell id="sieKOuywl5AD_1K4OOEY-94" value="Linux -&amp;nbsp;5.0.3(1)&amp;nbsp;" style="text;html=1;strokeColor=none;fillColor=none;align=center;verticalAlign=middle;whiteSpace=wrap;rounded=0;" vertex="1" parent="1">
          <mxGeometry x="547.5" y="1180" width="100" height="30" as="geometry" />
        </mxCell>
        <mxCell id="sieKOuywl5AD_1K4OOEY-95" value="Linux -&amp;nbsp;5.0.3(1)&amp;nbsp;" style="text;html=1;strokeColor=none;fillColor=none;align=center;verticalAlign=middle;whiteSpace=wrap;rounded=0;" vertex="1" parent="1">
          <mxGeometry x="1050" y="830" width="100" height="30" as="geometry" />
        </mxCell>
        <mxCell id="sieKOuywl5AD_1K4OOEY-96" value="N/A" style="text;html=1;strokeColor=none;fillColor=none;align=center;verticalAlign=middle;whiteSpace=wrap;rounded=0;" vertex="1" parent="1">
          <mxGeometry x="885.5" y="830" width="60" height="30" as="geometry" />
        </mxCell>
        <mxCell id="sieKOuywl5AD_1K4OOEY-97" value="Linux -&amp;nbsp;5.0.3(1)&amp;nbsp;" style="text;html=1;strokeColor=none;fillColor=none;align=center;verticalAlign=middle;whiteSpace=wrap;rounded=0;" vertex="1" parent="1">
          <mxGeometry x="575.5" y="470" width="100" height="30" as="geometry" />
        </mxCell>
      </root>
    </mxGraphModel>
  </diagram>
</mxfile>
